HIERARCHY
ROOT Hips
{
	OFFSET 0.00000 0.00000 0.00000
	CHANNELS 6 Xposition Yposition Zposition Yrotation Zrotation Xrotation 
	JOINT Lumbar
	{
		OFFSET 0 0 0
		CHANNELS 3 Zrotation Xrotation Yrotation
		JOINT Neck
		{
			OFFSET 0.00 0.2701 0.00
			CHANNELS 3 Zrotation Xrotation Yrotation
			End Site
			{
				OFFSET 0.00 0.1379 0.00
			}
		}
		JOINT RightShoulder
		{
			OFFSET 0.0119 0.2289 0.1181
			CHANNELS 3 Zrotation Xrotation Yrotation
			JOINT RightElbow
			{
				OFFSET 0.00 -0.1475 0.00
				CHANNELS 2 Zrotation Yrotation
				JOINT RightWrist
				{
					OFFSET 0.00 -0.1605 0.00
					CHANNELS 2 Zrotation Xrotation
					End Site
					{
						OFFSET 0.0040 -0.1068 0.0006
					}
				}
			}
		}
		JOINT LeftShoulder
		{
			OFFSET 0.0119 0.2289 -0.1181
			CHANNELS 3 Zrotation Xrotation Yrotation
			JOINT LeftElbow
			{
				OFFSET 0.00 -0.1475 0.00
				CHANNELS 2 Zrotation Yrotation
				JOINT LeftWrist
				{
					OFFSET 0.00 -0.1605 0.00
					CHANNELS 2 Zrotation Xrotation
					End Site
					{
						OFFSET 0.0040 -0.1068 -0.0006
					}
				}
			}
		}
	}
	JOINT RightHip
	{
		OFFSET 0.0316 -0.0424 0.0458
		CHANNELS 3 Zrotation Xrotation Yrotation
		JOINT RightKnee
		{
			OFFSET 0.00 -0.2438 0.00
			CHANNELS 1 Zrotation
			JOINT RightAnkle
			{
				OFFSET 0.00 -0.2449 0.00
				CHANNELS 3 Zrotation Xrotation Yrotation
				End Site
				{
					OFFSET 0.1237 -0.0542 0.0051
				}
			}
		}
	}
	JOINT LeftHip
	{
		OFFSET 0.0316 -0.0424 -0.0458
		CHANNELS 3 Zrotation Xrotation Yrotation
		JOINT LeftKnee
		{
			OFFSET 0.00 -0.2438 0.00
			CHANNELS 1 Zrotation
			JOINT LeftAnkle
			{
				OFFSET 0.00 -0.2449 0.00
				CHANNELS 3 Zrotation Xrotation Yrotation
				End Site
				{
					OFFSET 0.1237 -0.0542 -0.0051
				}
			}
		}
	}
}
MOTION
Frames: 25
Frame Time: 0.02
-0.00055 0.0002 -0.00042 -174.03407 -22.83422 1.51543 37.75105 0.16089 -12.38703 -15.06989 2.40035 -0.40078 -20.38115 -7.85737 1.31959 131.29019 81.32845 -3.0365 4.18078 -25.32841 5.50277 10.67926 31.25647 -87.33997 3.55596 8.50532 25.95089 -3.00339 3.42622 -19.87774 -7.34155 -4.76966 -3.19305 28.2582 5.84982 2.86046 -24.38625 -6.91961 2.73774 2.05619
0.00033 0.00015 0.00043 -174.25515 -22.84457 1.43915 37.55556 0.16774 -12.54682 -15.06832 2.41958 -0.41155 -20.76416 -7.3615 1.9625 131.50306 81.2998 -2.98167 3.84525 -25.2114 5.31872 11.31731 31.12315 -87.58616 3.5761 6.75218 26.08989 -3.12323 2.95612 -19.88727 -7.31749 -4.69128 -3.14745 28.34357 5.78517 2.75515 -24.43223 -6.91595 2.76675 2.0749
0.00121 0.0001 0.00127 -174.47602 -22.85496 1.3631 37.3604 0.17461 -12.70606 -15.06667 2.43872 -0.4223 -21.14607 -6.86746 2.60354 131.71478 81.27097 -2.92685 3.51112 -25.0944 5.13575 11.95233 30.99003 -87.83152 3.5963 5.00664 26.22879 -3.24285 2.48742 -19.8968 -7.29351 -4.6131 -3.10197 28.42895 5.72063 2.65049 -24.47817 -6.91229 2.79568 2.09355
0.00208 4e-05 0.00212 -174.6965 -22.86527 1.28706 37.16548 0.18144 -12.86535 -15.06511 2.45788 -0.43304 -21.52792 -6.37314 3.24451 131.92704 81.24235 -2.87216 3.17671 -24.97772 4.95235 12.58821 30.85708 -88.07678 3.61637 3.25937 26.3674 -3.36234 2.01877 -19.90631 -7.26952 -4.53496 -3.05651 28.51409 5.65617 2.54557 -24.52402 -6.90864 2.8246 2.11219
0.00296 -1e-05 0.00296 -174.91701 -22.87556 1.21078 36.9703 0.18827 -13.02517 -15.0636 2.47717 -0.44378 -21.91082 -5.87694 3.88726 132.14029 81.21404 -2.81751 2.8407 -24.8611 4.76769 13.22761 30.72401 -88.32335 3.63641 1.5034 26.50603 -3.48198 1.5487 -19.91583 -7.24545 -4.45664 -3.01094 28.59915 5.59162 2.43983 -24.56986 -6.90497 2.8536 2.1309
0.00384 -7e-05 0.00381 -175.13862 -22.88616 1.13522 36.77519 0.19521 -13.18319 -15.06166 2.49601 -0.45454 -22.29057 -5.38753 4.52463 132.34858 81.18418 -2.76236 2.51048 -24.74329 4.58827 13.85344 30.59082 -88.56638 3.65696 -0.22031 26.64552 -3.60158 1.08288 -19.92537 -7.22166 -4.37874 -2.96565 28.68524 5.52709 2.33744 -24.61601 -6.90136 2.88238 2.14943
0.00472 -0.00012 0.00465 -175.35779 -22.89605 1.05833 36.58022 0.2019 -13.3447 -15.06071 2.51566 -0.46527 -22.6763 -4.88484 5.17223 132.56752 81.15735 -2.70825 2.16922 -24.62814 4.39854 14.50562 30.45799 -88.8151 3.67629 -2.0061 26.78299 -3.7211 0.60913 -19.93483 -7.19733 -4.30011 -2.91986 28.76903 5.46261 2.22852 -24.66149 -6.89763 2.91156 2.16829
0.0056 -0.00018 0.0055 -175.5792 -22.90673 0.98261 36.38498 0.20885 -13.50293 -15.05861 2.53468 -0.47602 -23.05645 -4.39469 5.81021 132.77502 81.12793 -2.65325 1.83767 -24.51027 4.21824 15.13395 30.32486 -89.06071 3.69708 -3.73637 26.92258 -3.84073 0.14249 -19.94443 -7.1735 -4.22212 -2.87452 28.85517 5.39807 2.12546 -24.7076 -6.89401 2.94039 2.18686
0.00648 -0.00023 0.00635 -175.80353 -22.91785 0.90852 36.18986 0.216 -13.65744 -15.05603 2.55247 -0.4868 -23.43021 -3.91855 6.43747 132.97495 81.09448 -2.59681 1.5198 -24.39002 4.0498 15.73142 30.19115 -89.29412 3.71835 -5.39224 27.06388 -3.96044 -0.31487 -19.95395 -7.15027 -4.14496 -2.82976 28.94339 5.33349 2.03019 -24.75443 -6.89052 2.96871 2.20503
0.00733 -0.00028 0.00717 -176.01161 -22.92484 0.82562 35.9954 0.22165 -13.83422 -15.05901 2.57598 -0.49741 -23.84202 -3.35782 7.12954 133.23771 81.08162 -2.54759 1.12868 -24.28633 3.8141 16.5013 30.06014 -89.57248 3.73292 -7.45655 27.1927 -4.07955 -0.82383 -19.96317 -7.12355 -4.06316 -2.78172 29.01727 5.26922 1.892 -24.79699 -6.88627 2.99976 2.22538
0.00826 -0.00034 0.00805 -176.25358 -22.94158 0.76095 35.7987 0.23069 -13.96347 -15.04848 2.5883 -0.50838 -24.1727 -2.97813 7.6828 133.35564 81.02702 -2.48385 0.8886 -24.14591 3.71967 16.91081 29.92387 -89.77212 3.76414 -8.67179 27.34947 -4.19999 -1.22503 -19.97348 -7.1042 -3.99111 -2.74056 29.12287 5.20424 1.84314 -24.84864 -6.88365 3.02516 2.24119
0.00934 -0.00045 0.0091 -176.59275 -22.97706 0.7495 35.60262 0.24719 -13.9656 -15.01471 2.56257 -0.5205 -24.28547 -3.07805 7.86777 133.16987 80.84363 -2.37285 1.09632 -23.91805 4.02276 16.29233 29.76987 -89.62035 3.82163 -7.42798 27.57109 -4.32356 -1.31976 -19.98419 -7.10538 -3.94663 -2.71891 29.30475 5.13795 2.05126 -24.92483 -6.88533 3.03413 2.24381
0.01049 -0.00057 0.01021 -176.96498 -23.02396 0.7556 35.40303 0.26739 -13.91942 -14.96457 2.52716 -0.53295 -24.31573 -3.36234 7.91046 132.81929 80.62165 -2.24782 1.44987 -23.65076 4.46626 15.31836 29.61158 -89.41375 3.90001 -5.35428 27.82335 -4.44856 -1.30904 -19.99717 -7.1139 -3.91193 -2.70411 29.52072 5.07098 2.3465 -25.0102 -6.8887 3.03765 2.242
0.01164 -0.00068 0.0113 -177.31963 -23.07069 0.75176 35.2006 0.2871 -13.89319 -14.91324 2.50073 -0.54513 -24.38091 -3.57427 8.01071 132.48548 80.42572 -2.13508 1.7145 -23.39288 4.83862 14.53368 29.45687 -89.32182 3.98073 -3.74622 28.0688 -4.57326 -1.35265 -20.00991 -7.11894 -3.87204 -2.68563 29.72784 5.00369 2.59462 -25.0917 -6.89139 3.04425 2.24267
0.01268 -0.0008 0.01237 -177.68599 -23.09564 0.75689 35.01684 0.30189 -13.87524 -14.89937 2.45416 -0.5578 -24.45754 -3.74083 8.1429 132.40496 80.19091 -2.0007 2.07368 -23.1711 5.24071 13.63474 29.29364 -88.85458 4.00913 -1.76797 28.28265 -4.6965 -1.36588 -20.01643 -7.12474 -3.83475 -2.66922 29.90605 4.93837 2.87624 -25.17209 -6.89367 3.04818 2.24131
0.01396 -0.0009 0.01348 -178.03473 -23.1694 0.74668 34.7934 0.32767 -13.82872 -14.80226 2.44823 -0.56954 -24.48987 -4.04246 8.17201 131.74748 80.03155 -1.90389 2.27221 -22.86446 5.61606 12.88506 29.14917 -89.1514 4.15445 -0.35771 28.57161 -4.82312 -1.42131 -20.04007 -7.13052 -3.79511 -2.65056 30.15374 4.86964 3.10681 -25.25677 -6.89728 3.0565 2.24318
0.01584 -0.00095 0.01473 -178.33458 -23.36787 0.69704 34.46169 0.38378 -13.71429 -14.49167 2.54778 -0.5787 -24.42688 -4.6977 7.97302 129.62088 80.05775 -1.95166 1.9765 -22.33565 5.86658 12.67277 29.03892 -91.61096 4.59122 -0.7773 29.04083 -4.95865 -1.58438 -20.07919 -7.13602 -3.74037 -2.62041 30.5731 4.78477 3.19195 -25.35234 -6.90358 3.07702 2.25443
0.01795 -0.00098 0.016 -178.61339 -23.61576 0.63017 34.09055 0.45053 -13.57303 -14.09626 2.68986 -0.58691 -24.32023 -5.47729 7.66921 126.90051 80.16611 -2.03191 1.51715 -21.7222 6.08856 12.61489 28.95032 -94.83304 5.14927 -1.78677 29.58667 -5.0976 -1.79904 -20.14117 -7.14112 -3.68418 -2.58848 31.06235 4.69793 3.2201 -25.45147 -6.91125 3.10222 2.26911
0.01997 -0.00103 0.01724 -178.89752 -23.84669 0.56621 33.73658 0.51194 -13.44456 -13.73074 2.81898 -0.59555 -24.23 -6.18348 7.40169 124.40125 80.25949 -2.07127 1.14209 -21.14605 6.33431 12.4627 28.86506 -97.68133 5.66974 -2.48789 30.11227 -5.23497 -2.01411 -20.2133 -7.14511 -3.63266 -2.55963 31.52872 4.61635 3.26253 -25.54834 -6.91873 3.12626 2.28268
0.02194 -0.00106 0.01858 -179.20351 -24.05761 0.52293 33.38372 0.57603 -13.31159 -13.39842 2.92259 -0.60422 -24.15417 -6.96888 7.18523 122.11529 80.26185 -2.21566 0.72892 -20.57406 6.53878 12.40434 28.72744 -100.64664 6.11923 -3.32913 30.58377 -5.37228 -2.12892 -20.19928 -7.15404 -3.56422 -2.52118 31.96318 4.51575 3.3547 -25.64899 -6.9246 3.14662 2.29451
0.02405 -0.0011 0.0197 -179.45504 -24.31824 0.43312 33.02166 0.6365 -13.18263 -12.98052 3.08741 -0.61257 -24.0355 -7.6146 6.82916 119.22949 80.46787 -2.15521 0.356 -19.97305 6.82134 12.18638 28.6998 -103.54519 6.74219 -4.03058 31.17775 -5.51081 -2.461 -20.36951 -7.15344 -3.53096 -2.50251 32.47473 4.45502 3.33156 -25.74152 -6.93392 3.17512 2.31046
0.0266 -0.00118 0.02025 -179.59147 -24.73467 0.21189 32.62368 0.68856 -13.06694 -12.31688 3.42955 -0.62055 -23.83891 -7.85963 6.18547 114.97439 81.25963 -1.47363 0.11989 -19.31978 7.3191 11.53987 29.00886 -106.1059 7.83644 -4.19475 32.15901 -5.64905 -3.42526 -21.04613 -7.11817 -3.59126 -2.53634 33.22951 4.49873 2.97782 -25.8193 -6.95436 3.23119 2.34037
0.02926 -0.00126 0.02056 -179.66841 -25.19385 -0.05414 32.22193 0.73578 -12.95631 -11.57566 3.82858 -0.62818 -23.59488 -7.95652 5.38119 110.10972 82.24021 -0.59667 -0.06786 -18.63943 7.89673 10.72096 29.42188 -108.56128 9.09487 -4.2026 33.24776 -5.78882 -4.59843 -21.9054 -7.07467 -3.68747 -2.59046 34.05068 4.58376 2.51435 -25.88736 -6.97788 3.29425 2.37376
0.03179 -0.00133 0.02096 -179.75217 -25.61306 -0.2953 31.83475 0.78244 -12.84768 -10.88995 4.18909 -0.63576 -23.35442 -8.1095 4.61765 105.4329 83.11289 0.16338 -0.26935 -17.96652 8.44242 9.94869 29.76072 -111.05094 10.26613 -4.2917 34.24305 -5.92986 -5.64723 -22.68067 -7.04067 -3.77007 -2.63713 34.80981 4.65393 2.11792 -25.95391 -6.99874 3.34995 2.40329
0.03466 -0.00142 0.02146 -179.91898 -26.11987 -0.55687 31.3906 0.84117 -12.72387 -10.11618 4.60373 -0.64421 -23.19126 -8.31219 4.03133 101.11473 84.1038 1.05315 -0.5122 -17.30973 8.97035 9.31106 30.20922 -113.64878 11.50281 -4.36079 35.43063 -6.06313 -6.82251 -23.46659 -6.98311 -3.84214 -2.67679 35.70484 4.70757 1.64743 -26.04468 -7.02491 3.42313 2.44235
